<svg xmlns="http://www.w3.org/2000/svg" viewBox="0 0 997 264"><defs><style>.a{fill:#ff5b00;}.b{fill:#ff9307;}</style></defs><path class="a" d="M266.83,65.67v1.9a28.51,28.51,0,0,1-3.29,13.29L210.71,180.93a3.48,3.48,0,0,0,3.08,5.1h54.65a10.08,10.08,0,0,1,10.09,10.08v3a10.08,10.08,0,0,1-10.09,10.08H194.18a16.29,16.29,0,0,1-16.29-16.29v-1.22a1.22,1.22,0,0,1,.14-.56L234.27,84.61a3.6,3.6,0,0,0-3.18-5.28H142.71a10.05,10.05,0,0,1-10.06-10.06v-3a10.06,10.06,0,0,1,10.06-10.06H257.34A9.5,9.5,0,0,1,266.83,65.67Z"/><path class="a" d="M333.8,211.49a56.06,56.06,0,0,1-20.95-3.93,50,50,0,0,1-16.63-10.64,47.85,47.85,0,0,1-10.79-15.85q-3.89-9.23-3.88-27t3.88-27a48,48,0,0,1,10.79-15.85Q311.33,96.7,333.8,96.69a56,56,0,0,1,20.94,3.93A48.21,48.21,0,0,1,371.08,111a48.73,48.73,0,0,1,11.09,16.09q3.87,9.22,3.87,27t-3.87,27a48.63,48.63,0,0,1-11.09,16.09Q356.32,211.49,333.8,211.49ZM304,154.09q0,20.76,9.57,28.65a30.92,30.92,0,0,0,20.26,6.92q12.84,0,21.14-7.7,8.73-8.06,8.73-27.87t-8.73-27.81q-8.29-7.75-21.14-7.75a30.91,30.91,0,0,0-20.26,6.91Q304,133.35,304,154.09Z"/><path class="a" d="M413.08,209.33h-1.34a11,11,0,0,1-11-11V115a11,11,0,0,1,5.74-9.66,69.44,69.44,0,0,1,16.63-6.27,88.21,88.21,0,0,1,36.68-.9A11,11,0,0,1,468.9,109h0A11,11,0,0,1,456,119.79a68.87,68.87,0,0,0-11.91-1.12,51,51,0,0,0-11.45,1.2,11,11,0,0,0-8.62,10.73v67.75A11,11,0,0,1,413.08,209.33Z"/><path class="a" d="M520.7,211.49a56,56,0,0,1-21-3.93,50,50,0,0,1-16.63-10.64,47.85,47.85,0,0,1-10.79-15.85q-3.88-9.23-3.88-27t3.88-27a48,48,0,0,1,10.79-15.85Q498.23,96.7,520.7,96.69a56,56,0,0,1,20.94,3.93A48.21,48.21,0,0,1,558,111a48.73,48.73,0,0,1,11.09,16.09q3.87,9.22,3.87,27t-3.87,27A48.63,48.63,0,0,1,558,197.16Q543.2,211.49,520.7,211.49Zm-29.83-57.4q0,20.76,9.56,28.65a31,31,0,0,0,20.27,6.92q12.84,0,21.14-7.7,8.73-8.06,8.73-27.87t-8.73-27.81q-8.3-7.75-21.14-7.75a31,31,0,0,0-20.27,6.91Q490.88,133.35,490.87,154.09Z"/><path class="a" d="M651.81,151.44,682,119.31a11.41,11.41,0,0,0-8.31-19.23h0a11.45,11.45,0,0,0-8.46,3.74L631,141.58V57.07a11.85,11.85,0,0,0-11.23-11.93,11.66,11.66,0,0,0-12.08,11.65V197.48a11.65,11.65,0,0,0,11.65,11.65h0A11.65,11.65,0,0,0,631,197.48V161.55l36,43.4a11.56,11.56,0,0,0,8.9,4.18h0a11.56,11.56,0,0,0,8.81-19Z"/><path class="a" d="M785.58,113.23q-13.05-16.59-40.32-16.58a156.73,156.73,0,0,0-26,2,10.76,10.76,0,0,0-8.93,10.63h0a10.82,10.82,0,0,0,12.77,10.61,127.72,127.72,0,0,1,22.21-1.85A36,36,0,0,1,761,121.27a16.6,16.6,0,0,1,8.49,9.37H750.56q-21.19,0-35.38,10.55a36.59,36.59,0,0,0-10.25,11.63q-3.63,6.62-3.63,18.2t3.63,18.25a35.48,35.48,0,0,0,10.25,11.57q14.19,10.65,35.38,10.65c2.93,0,5.77-.13,8.52-.37a39.05,39.05,0,0,0,35.43-39V141.83a52.62,52.62,0,0,0-1.77-13.93A38.69,38.69,0,0,0,785.58,113.23ZM771.16,172a17.75,17.75,0,0,1-15.53,17.66,42,42,0,0,1-5.07.31q-11.68,0-18.3-3.78-7.6-4.36-7.61-16t7.56-15.4q5.53-2.7,18.35-2.7h20.6Z"/><path class="a" d="M836.15,99a69.28,69.28,0,0,0-16.63,6.27,11,11,0,0,0-5.74,9.66v83.37a11,11,0,0,0,11,11h1.34a11,11,0,0,0,11-11V130.5a11,11,0,0,1,8.62-10.73,51.52,51.52,0,0,1,11.44-1.2,68.9,68.9,0,0,1,11.92,1.12,11,11,0,0,0,12.86-10.82h0a11,11,0,0,0-9.09-10.82A88.2,88.2,0,0,0,836.15,99Z"/><path class="a" d="M977.41,99.79h-55a6.49,6.49,0,0,1-6.48-6.49V77.64a10.38,10.38,0,0,0-10.38-10.38H903A10.38,10.38,0,0,0,892.6,77.64V174q0,17.61,8.88,27.57,8.68,9.76,25.07,9.76h1.57c.62,0,1.2,0,1.72-.05,1.34,0,2.61,0,3.83-.15h.09a10.22,10.22,0,0,0,9.52-10.23v-1.16a10.34,10.34,0,0,0-10.87-10.36c-.86.05-1.75.07-2.67.07q-7.8,0-10.94-4.51-2.89-4.27-2.89-14V125.23a6.26,6.26,0,0,1,6.26-6.26h55.24a9.59,9.59,0,0,0,9.59-9.59h0A9.59,9.59,0,0,0,977.41,99.79Z"/><path class="b" d="M292.21,84.91h280a10,10,0,0,0,10.12-9.63,9.9,9.9,0,0,0-9.9-10.15H307.55a10,10,0,0,1-9.71-7.47l-11.67-44A9.9,9.9,0,0,0,267,18.74l15.61,58.82A9.88,9.88,0,0,0,292.21,84.91Z"/><path class="b" d="M466.62,243.61H164.79a10.54,10.54,0,0,1-8.93-4.83L85.77,127.62a8.42,8.42,0,0,0-7.12-3.93H20.44a10,10,0,1,1,0-20H89.18a10.54,10.54,0,0,1,8.94,4.83L165.37,215.2a18,18,0,0,0,15.27,8.43h286a10,10,0,1,1,0,20Z"/></svg>